# xmcd CD database file
#
# Track frame offsets:
#	183
#	9380
#	16380
#	25370
#	33413
#	45475
#	55695
#	66073
#	79425
#	92775
#	108785
#	121680
#	128475
#	143715
#	154470
#	165365
#	176210
#	185380
#
# Disc length: 2624 seconds
#
# Revision: 0
# Processed by: cddbd v1.5.2PL0 Copyright (c) Steve Scherf et al.
# Submitted via: CDex 1.77
#
DISCID=df0a3e12
DTITLE=Frank Sinatra - Early Swing
DYEAR=1900
DGENRE=Jazz
TTITLE0=My Blue Heaven
TTITLE1=You Do Something To Me
TTITLE2=When You're Smiling (The Whole World Smiles At You)
TTITLE3=S'Posin'
TTITLE4=Ol' Mac Donald
TTITLE5=Always
TTITLE6=It's Only A Paper Moon
TTITLE7=September In The Rain
TTITLE8=I'll Be Around
TTITLE9=It's Easy To Remember
TTITLE10=Blue Moon
TTITLE11=Should I
TTITLE12=I Couldn't Sleep A Wink Last Night
TTITLE13=I Concentrate On You
TTITLE14=I Can't Believe That You're In Love With Me
TTITLE15=Hidden Persuasion
TTITLE16=It All Depends On You
TTITLE17=What Is This Thing Called Love
EXTD=
EXTT0=
EXTT1=
EXTT2=
EXTT3=
EXTT4=
EXTT5=
EXTT6=
EXTT7=
EXTT8=
EXTT9=
EXTT10=
EXTT11=
EXTT12=
EXTT13=
EXTT14=
EXTT15=
EXTT16=
EXTT17=
PLAYORDER=
